# AST/ASF file generated using VICON BodyLanguage
# -----------------------------------------------
:version 1.10
:name VICON
:units
  mass 1.0
  length 0.45
  angle deg
:documentation
   .ast/.asf automatically generated from VICON data using
   VICON BodyBuilder and BodyLanguage model FoxedUp or BRILLIANT.MOD
:root
   order TX TY TZ RX RY RZ
   axis XYZ
   position 0 0 0  
   orientation 0 0 0 
:bonedata
  begin
     id 1 
     name lhipjoint
     direction 0.722297 -0.617336 0.311742 
     length 2.6635 
     axis 0 0 0  XYZ
  end
  begin
     id 2 
     name lfemur
     direction 0.34202 -0.939693 0  
     length 7.39349  
     axis 0 0 20  XYZ
    dof rx ry rz
    limits (-160.0 20.0)
           (-70.0 70.0)
           (-60.0 70.0)
  end
  begin
     id 3 
     name ltibia
     direction 0.34202 -0.939693 0   
     length 7.36294   
     axis 0 0 20   XYZ
    dof rx
    limits (-10.0 170.0)
  end
  begin
     id 4 
     name lfoot
     direction 0.104879 -0.288152 0.951824   
     length 2.16981   
     axis -90 7.62852e-016 20   XYZ
    dof rx rz
    limits (-45.0 90.0)
           (-70.0 20.0)
  end
  begin
     id 5 
     name ltoes
     direction 1.53586e-011 -4.21895e-011 1   
     length 1.08218   
     axis -90 7.62852e-016 20   XYZ
    dof rx
    limits (-90.0 20.0)
  end
  begin
     id 6 
     name rhipjoint
     direction -0.75102 -0.589393 0.297631   
     length 2.78977  
     axis 0 0 0  XYZ 
  end
  begin
     id 7 
     name rfemur
     direction -0.34202 -0.939693 0   
     length 7.46076   
     axis 0 0 -20   XYZ
    dof rx ry rz
    limits (-160.0 20.0)
           (-70.0 70.0)
           (-70.0 60.0)
  end
  begin
     id 8 
     name rtibia
     direction -0.34202 -0.939693 0   
     length 7.31726   
     axis 0 0 -20   XYZ
    dof rx
    limits (-10.0 170.0)
 end
 begin
     id 9 
     name rfoot
     direction -0.107991 -0.296704 0.948844   
     length 2.09388  
     axis -90 -7.62852e-016 -20   XYZ
    dof rx rz
    limits (-45.0 90.0)
           (-20.0 70.0)
  end
  begin
     id 10 
     name rtoes
     direction -1.53559e-011 -4.21911e-011 1   
     length 1.04433   
     axis -90 -7.62852e-016 -20   XYZ
    dof rx
    limits (-90.0 20.0)
  end
  begin
     id 11 
     name lowerback
     direction 0.0165164 0.98272 0.184358   
     length 1.71896   
     axis 0 0 0   XYZ
    dof rx ry rz
    limits (-20.0 45.0)
           (-30.0 30.0)
           (-30.0 30.0)
  end
  begin
     id 12 
     name upperback
     direction -0.00887249 0.992297 0.123566   
     length 1.71504   
     axis 0 0 0   XYZ
    dof rx ry rz
    limits (-20.0 45.0)
           (-30.0 30.0)
           (-30.0 30.0)
  end
  begin
     id 13 
     name thorax
     direction -0.0157026 0.998908 0.0440032   
     length 1.77022   
     axis 0 0 0   XYZ
    dof rx ry rz
    limits (-20.0 45.0)
           (-30.0 30.0)
           (-30.0 30.0)
  end
  begin
     id 14 
     name lowerneck
     direction -0.0238856 0.998137 0.0561411   
     length 1.89341   
     axis 0 0 0   XYZ
    dof rx ry rz
    limits (-20.0 45.0)
           (-30.0 30.0)
           (-30.0 30.0)
  end
  begin
     id 15 
     name upperneck
     direction 0.0276574 0.952253 -0.304056   
     length 1.86999   
     axis 0 0 0   XYZ
    dof rx ry rz
    limits (-20.0 45.0)
           (-30.0 30.0)
           (-30.0 30.0)
  end
  begin
     id 16
     name head
     direction 0.00800083 0.994258 -0.106712  
     length 1.91492  
     axis 0 0 0   XYZ
    dof rx ry rz
    limits (-20.0 45.0)
           (-30.0 30.0)
           (-30.0 30.0)
  end
  begin
     id 17 
     name lclavicle
     direction 0.97203 0.225407 0.06595  
     length 3.34889  
     axis 0 0 0   XYZ
    dof ry rz
    limits (-20.0 10.0)
           (0.0 20.0)
  end
  begin
     id 18 
     name lhumerus
     direction 1 -4.48973e-011 2.20267e-027   
     length 4.85645   
     axis 180 -30 -90   XYZ
    dof rx ry rz
    limits (-60.0 90.0)
           (-90.0 90.0)
           (-90.0 90.0)
  end
  begin
     id 19
     name lradius
     direction 1 -4.4897e-011 4.60472e-027   
     length 2.79874   
     axis 180 -30 -90   XYZ
    dof rx
    limits (-10.0 170.0)
  end
  begin
     id 20
     name lwrist
     direction 1 -4.48952e-011 1.14928e-026   
     length 1.39937   
     axis -6.29373e-015 90 90   XYZ
    dof ry
    limits (-180.0 0.0)
 end
  begin
     id 21 
     name lhand
     direction 1 -4.48967e-011 2.29886e-026   
     length 0.573398   
     axis -1.46689e-014 90 90   XYZ
    dof rx rz
    limits (-90.0 90.0)
           (-45.0 45.0)
  end
  begin
     id 22 
     name lfingers
     direction 1 -4.48955e-011 4.59726e-026   
     length 0.462289   
     axis -2.93383e-014 90 90   XYZ
    dof rx
    limits (0.0 90.0)
  end
  begin
     id 23
     name lthumb
     direction 0.707107 -6.34866e-011 0.707107   
     length 0.663757   
     axis -90 45 5.69224e-014   XYZ
    dof rx rz
    limits (-45.0 45.0)
           (-45.0 45.0)
  end
  begin
     id 24 
     name rclavicle
     direction -0.981571 0.157346 0.108443   
     length 3.35257  
     axis 0 0 0   XYZ 
    dof ry rz
    limits (-10.0 20.0)
           (-20.0 0.0)
  end
  begin
     id 25 
     name rhumerus
     direction -1 -4.48967e-011 8.58308e-029  
     length 4.67018   
     axis 180 30 90   XYZ
    dof rx ry rz
    limits (-90.0 60.0)
           (-90.0 90.0)
           (-90.0 90.0)
  end
  begin
     id 26 
     name rradius
     direction -1 -4.48958e-011 4.52548e-027   
     length 2.65534   
     axis 180 30 90   XYZ
    dof rx
    limits (-10.0 170.0)
  end
  begin
     id 27 
     name rwrist
     direction -1 -4.48977e-011 1.14952e-026   
     length 1.32767   
     axis -6.29373e-015 -90 -90   XYZ
    dof ry
    limits (-180.0 0.0)
  end
  begin
     id 28
     name rhand
     direction -1 -4.48924e-011 2.29804e-026   
     length 0.594069   
     axis -1.46689e-014 -90 -90   XYZ
    dof rx rz
    limits (-90.0 90.0)
           (-45.0 45.0)
  end
  begin
     id 29
     name rfingers
     direction -1 -4.48998e-011 4.59888e-026   
     length 0.478954   
     axis -2.93383e-014 -90 -90   XYZ
    dof rx
    limits (0.0 90.0)
  end
  begin
     id 30
     name rthumb
     direction -0.707107 -6.34933e-011 0.707107   
     length 0.687685   
     axis -90 -45 -5.69224e-014   XYZ
    dof rx rz
    limits (-45.0 45.0)
           (-45.0 45.0)
  end
:hierarchy
  begin
    root lhipjoint rhipjoint lowerback
    lhipjoint lfemur
    lfemur ltibia
    ltibia lfoot
    lfoot ltoes
    rhipjoint rfemur
    rfemur rtibia
    rtibia rfoot
    rfoot rtoes
    lowerback upperback
    upperback thorax
    thorax lowerneck lclavicle rclavicle
    lowerneck upperneck
    upperneck head
    lclavicle lhumerus
    lhumerus lradius
    lradius lwrist
    lwrist lhand lthumb
    lhand lfingers
    rclavicle rhumerus
    rhumerus rradius
    rradius rwrist
    rwrist rhand rthumb
    rhand rfingers
  end

#!OML:ASF E:\pregnant2\Project 1\Capture day 1\Session 1\pregnant2.ASF
:FULLY-SPECIFIED
:DEGREES
881
root 5.59073 17.0639 2.52509 32.0942 -1.14821 361.34
lowerback -18.8275 -0.21791 -0.987531
upperback -16.4508 -0.22725 -1.32141
thorax -7.45295 -0.113038 -0.898785
lowerneck -14.0137 7.47269 9.88835
upperneck 27.9536 10.1337 -6.32689
head 12.4223 4.83421 -2.51111
rclavicle -3.72721e-015 -3.97569e-016
rhumerus -65.2758 23.206 -108.433
rradius 81.7718
rwrist -44.1559
rhand 14.9198 -16.9308
rfingers 7.12502
rthumb 39.7762 -42.224
lclavicle -3.72721e-015 -3.97569e-016
lhumerus -70.1518 -43.0527 117.718
lradius 83.8655
lwrist 62.2857
lhand 13.1038 35.1625
lfingers 7.12502
lthumb 38.0639 60.9443
rfemur -63.5897 12.8164 4.22122
rtibia 25.6998
rfoot -13.5492 -21.856
rtoes -2.66262
lfemur -36.3778 -5.55368 -26.5041
ltibia 29.1735
lfoot -20.4102 10.6161
ltoes -18.3898
882
root 5.57532 17.0543 2.64903 32.0691 -1.09474 361.384
lowerback -18.8315 -0.213592 -1.02184
upperback -16.4502 -0.215806 -1.32083
thorax -7.45005 -0.103243 -0.877704
lowerneck -13.9981 7.47627 9.86968
upperneck 28.1376 10.1598 -6.32159
head 12.4943 4.84478 -2.5033
rclavicle -1.98785e-015 -2.18663e-015
rhumerus -65.3221 23.3322 -108.525
rradius 81.7701
rwrist -44.2603
rhand 14.881 -16.9961
rfingers 7.12502
rthumb 39.7397 -42.3001
lclavicle -1.98785e-015 -2.18663e-015
lhumerus -70.2547 -43.0678 117.832
lradius 83.8284
lwrist 62.4177
lhand 13.0519 35.1493
lfingers 7.12502
lthumb 38.0149 60.9444
rfemur -63.6709 13.4045 3.51586
rtibia 25.1431
rfoot -14.0373 -23.0343
rtoes -2.42464
lfemur -35.7885 -5.42637 -26.5619
ltibia 29.0064
lfoot -20.6621 10.5477
ltoes -18.7409
883
root 5.55913 17.0402 2.77391 32.0442 -1.05062 361.416
lowerback -18.8499 -0.203456 -1.04514
upperback -16.4456 -0.197646 -1.31575
thorax -7.43487 -0.0908635 -0.857108
lowerneck -13.9813 7.48262 9.85383
upperneck 28.3128 10.1913 -6.3242
head 12.564 4.85705 -2.49805
rclavicle 1.20265e-014 -1.41137e-014
rhumerus -65.3596 23.4827 -108.619
rradius 81.7633
rwrist -44.3619
rhand 14.8503 -17.053
rfingers 7.12502
rthumb 39.7107 -42.3656
lclavicle 1.20265e-014 -1.41137e-014
lhumerus -70.353 -43.0727 117.933
lradius 83.8041
lwrist 62.5134
lhand 12.9906 35.1423
lfingers 7.12502
lthumb 37.957 60.9532
rfemur -63.5854 13.3697 3.73775
rtibia 24.8466
rfoot -14.2268 -23.4179
rtoes -2.54119
lfemur -35.2662 -5.25021 -26.6215
ltibia 28.9826
lfoot -20.9835 10.4684
ltoes -19.1349
884
root 5.54206 17.0222 2.89969 32.0253 -1.01368 361.433
lowerback -18.8876 -0.186694 -1.05452
upperback -16.4379 -0.172015 -1.3074
thorax -7.4061 -0.0758754 -0.839875
lowerneck -13.9683 7.48942 9.84177
upperneck 28.48 10.2237 -6.33402
head 12.6323 4.86917 -2.49584
rclavicle 3.926e-015 -2.78299e-015
rhumerus -65.3798 23.6565 -108.71
rradius 81.7484
rwrist -44.4565
rhand 14.8235 -17.0949
rfingers 7.12502
rthumb 39.6855 -42.415
lclavicle 3.926e-015 -2.78299e-015
lhumerus -70.4478 -43.0705 118.024
lradius 83.7894
lwrist 62.5775
lhand 12.9151 35.131
lfingers 7.12502
lthumb 37.8857 60.9612
rfemur -63.3366 12.7472 4.82595
rtibia 24.7851
rfoot -14.0182 -22.9545
rtoes -3.02934
lfemur -34.8074 -5.03609 -26.6743
ltibia 29.0802
lfoot -21.3497 10.3886
ltoes -19.591
885
root 5.52405 17.0015 3.0261 32.0166 -0.978079 361.432
lowerback -18.9416 -0.165478 -1.04628
upperback -16.4305 -0.142326 -1.29412
thorax -7.36923 -0.060265 -0.826687
lowerneck -13.961 7.49737 9.83118
upperneck 28.6427 10.2575 -6.34643
head 12.7006 4.88151 -2.49443
rclavicle 4.17448e-015 1.8487e-014
rhumerus -65.3878 23.852 -108.799
rradius 81.7285
rwrist -44.5524
rhand 14.8103 -17.1295
rfingers 7.12502
rthumb 39.673 -42.4533
lclavicle 4.17448e-015 1.8487e-014
lhumerus -70.5439 -43.0543 118.103
lradius 83.7912
lwrist 62.6166
lhand 12.8139 35.1095
lfingers 7.12502
lthumb 37.7901 60.9656
rfemur -62.9994 11.7262 6.48415
rtibia 24.9304
rfoot -13.3709 -21.8399
rtoes -3.75328
lfemur -34.4032 -4.80835 -26.7066
ltibia 29.2695
lfoot -21.7322 10.3272
ltoes -20.1225
886
root 5.50506 16.98 3.15291 32.0224 -0.935925 361.412
lowerback -19.0105 -0.141779 -1.01777
upperback -16.4318 -0.111675 -1.27546
thorax -7.33505 -0.0458046 -0.818958
lowerneck -13.9385 7.50338 9.83066
upperneck 28.7969 10.289 -6.36643
head 12.7634 4.89344 -2.49846
rclavicle -7.95139e-016 9.54166e-015
rhumerus -65.4043 24.0622 -108.894
rradius 81.7098
rwrist -44.6391
rhand 14.7914 -17.1515
rfingers 7.12502
rthumb 39.6552 -42.4807
lclavicle -7.95139e-016 9.54166e-015
lhumerus -70.6632 -43.0158 118.184
lradius 83.8118
lwrist 62.6378
lhand 12.687 35.0813
lfingers 7.12502
lthumb 37.6701 60.9695
rfemur -62.6787 10.6028 8.27745
rtibia 25.2442
rfoot -12.3508 -20.4658
rtoes -4.38722
lfemur -34.0436 -4.59984 -26.701
ltibia 29.519
lfoot -22.0949 10.3014
ltoes -20.7334
887
root 5.485 16.96 3.27981 32.0478 -0.885034 361.365
lowerback -19.0905 -0.11611 -0.964327
upperback -16.4428 -0.0813368 -1.2464
thorax -7.30662 -0.0332645 -0.814039
lowerneck -13.9039 7.50976 9.83792
upperneck 28.9396 10.3222 -6.39494
head 12.8205 4.90619 -2.50713
rclavicle 3.32964e-015 0
rhumerus -65.4197 24.2963 -108.99
rradius 81.6817
rwrist -44.7226
rhand 14.7827 -17.1645
rfingers 7.12502
rthumb 39.6471 -42.4961
lclavicle 3.32964e-015 0
lhumerus -70.7966 -42.9451 118.259
lradius 83.8502
lwrist 62.6456
lhand 12.5316 35.0369
lfingers 7.12502
lthumb 37.5233 60.9643
rfemur -62.4397 9.5876 9.91932
rtibia 25.6739
rfoot -11.0492 -19.1231
rtoes -4.72903
lfemur -33.7219 -4.43475 -26.6389
ltibia 29.799
lfoot -22.4053 10.3273
ltoes -21.4208
888
root 5.46398 16.9434 3.40647 32.0998 -0.821953 361.279
lowerback -19.1762 -0.0864492 -0.87367
upperback -16.469 -0.0504017 -1.20416
thorax -7.29308 -0.0231913 -0.815717
lowerneck -13.8559 7.51772 9.86216
upperneck 29.0688 10.359 -6.44102
head 12.8721 4.92063 -2.52516
rclavicle -4.07509e-015 -1.63003e-014
rhumerus -65.4339 24.5519 -109.093
rradius 81.6428
rwrist -44.7988
rhand 14.774 -17.1751
rfingers 7.12502
rthumb 39.6388 -42.5091
lclavicle -4.07509e-015 -1.63003e-014
lhumerus -70.9395 -42.8381 118.324
lradius 83.8976
lwrist 62.6457
lhand 12.3685 34.999
lfingers 7.12502
lthumb 37.3692 60.9671
rfemur -62.3047 8.79703 11.2763
rtibia 26.1589
rfoot -9.59961 -17.9726
rtoes -4.73678
lfemur -33.4399 -4.32039 -26.5041
ltibia 30.0933
lfoot -22.6431 10.4023
ltoes -22.1556
889
root 5.44213 16.9314 3.53286 32.1747 -0.753829 361.141
lowerback -19.2563 -0.0489478 -0.736932
upperback -16.5118 -0.0151589 -1.14365
thorax -7.30201 -0.0142806 -0.822995
lowerneck -13.7868 7.53008 9.90946
upperneck 29.1799 10.4047 -6.5113
head 12.916 4.93914 -2.55547
rclavicle -2.78299e-015 1.09332e-014
rhumerus -65.4511 24.8401 -109.21
rradius 81.5851
rwrist -44.8719
rhand 14.7697 -17.1475
rfingers 7.12502
rthumb 39.6349 -42.4827
lclavicle -2.78299e-015 1.09332e-014
lhumerus -71.082 -42.6801 118.375
lradius 83.9437
lwrist 62.6288
lhand 12.205 34.9685
lfingers 7.12502
lthumb 37.2146 60.9771
rfemur -62.2586 8.29607 12.3029
rtibia 26.6414
rfoot -8.13355 -17.066
rtoes -4.50155
lfemur -33.196 -4.25266 -26.2867
ltibia 30.4042
lfoot -22.8019 10.5285
ltoes -22.913
